<svg width="175" height="47" viewBox="0 0 175 47" xmlns="http://www.w3.org/2000/svg">
<path d="M62.4424 1.4812H65.3087L68.4876 6.59647L71.6665 1.4812H74.5328V13.5823H71.8876V5.6803L68.4876 10.849H68.419L65.0572 5.73375V13.5823H62.45V1.4812H62.4424ZM76.6674 7.56608V7.52791C76.6674 4.09228 79.3736 1.26743 83.1014 1.26743C86.8291 1.26743 89.5049 4.04647 89.5049 7.48974V7.52791C89.5049 10.9712 86.7986 13.7884 83.0709 13.7884C79.3431 13.7884 76.6674 11.0017 76.6674 7.56608ZM86.73 7.56608V7.52791C86.73 5.45126 85.213 3.72581 83.0709 3.72581C80.9287 3.72581 79.4498 5.42072 79.4498 7.49737V7.53554C79.4498 9.61219 80.9669 11.3376 83.109 11.3376C85.2435 11.33 86.73 9.6351 86.73 7.56608ZM91.6165 1.4812H96.3277C100.124 1.4812 102.746 4.09228 102.746 7.49737V7.53554C102.746 10.9406 100.124 13.5823 96.3277 13.5823H91.6165V1.4812ZM96.3277 11.1773C98.5003 11.1773 99.9716 9.71144 99.9716 7.56608V7.52791C99.9716 5.38255 98.5079 3.87851 96.3277 3.87851H94.277V11.1697H96.3277V11.1773ZM104.637 8.39064V1.4812H107.298V8.32192C107.298 10.2917 108.281 11.3147 109.905 11.3147C111.528 11.3147 112.512 10.3299 112.512 8.41354V1.4812H115.172V8.30665C115.172 11.9713 113.122 13.7655 109.874 13.7655C106.619 13.7655 104.637 11.9561 104.637 8.39064ZM117.787 1.4812H120.448V11.162H126.47V13.5823H117.787V1.4812ZM132.736 1.38958H135.183L140.36 13.5746H137.585L136.479 10.8643H131.372L130.266 13.5746H127.56L132.736 1.38958ZM135.526 8.51279L133.918 4.58854L132.309 8.51279H135.526ZM141.861 1.4812H147.381C148.913 1.4812 150.11 1.91638 150.902 2.71039C151.573 3.38225 151.939 4.33659 151.939 5.47417V5.51234C151.939 7.46683 150.887 8.69602 149.347 9.26099L152.298 13.5823H149.195L146.603 9.71144H144.514V13.5823H141.854V1.4812H141.861ZM147.213 7.35231C148.509 7.35231 149.248 6.65755 149.248 5.64213V5.60396C149.248 4.46638 148.455 3.87851 147.159 3.87851H144.522V7.35231H147.213Z" fill="#303036"/>
<path d="M62.7549 18.5371H63.5858V28.9586H70.1418V29.722H62.7549V18.5371Z" />
<path d="M72.2002 18.5371H73.0311V29.722H72.2002V18.5371Z" />
<path d="M75.6309 24.164V24.1335C75.6309 21.1101 77.8187 18.3463 81.1501 18.3463C82.972 18.3463 84.1155 18.8884 85.2361 19.8198L84.6949 20.4459C83.8182 19.6824 82.7967 19.1022 81.1043 19.1022C78.3905 19.1022 76.4923 21.4002 76.4923 24.1029V24.1335C76.4923 27.027 78.299 29.18 81.2797 29.18C82.6976 29.18 84.024 28.5922 84.8397 27.905V24.6908H81.1043V23.9273H85.6326V28.241C84.6263 29.1342 83.0635 29.9206 81.2416 29.9206C77.7196 29.913 75.6309 27.3095 75.6309 24.164Z" />
<path d="M88.4375 18.5371H89.2684V23.7135H96.419V18.5371H97.25V29.722H96.419V24.477H89.2684V29.722H88.4375V18.5371Z" />
<path d="M103.166 19.3083H99.2705V18.5449H107.885V19.3083H103.989V29.7298H103.158V19.3083H103.166Z" />
<path d="M109.966 18.5371H110.797V29.722H109.966V18.5371Z" />
<path d="M113.937 18.5371H114.723L122.43 28.2714V18.5371H123.23V29.722H122.605L114.73 19.7816V29.722H113.93V18.5371H113.937Z" />
<path d="M125.769 24.164V24.1335C125.769 21.1101 127.956 18.3463 131.288 18.3463C133.11 18.3463 134.253 18.8884 135.374 19.8198L134.833 20.4459C133.956 19.6824 132.934 19.1022 131.242 19.1022C128.528 19.1022 126.63 21.4002 126.63 24.1029V24.1335C126.63 27.027 128.437 29.18 131.417 29.18C132.835 29.18 134.162 28.5922 134.977 27.905V24.6908H131.242V23.9273H135.77V28.241C134.764 29.1342 133.201 29.9206 131.379 29.9206C127.857 29.913 125.769 27.3095 125.769 24.164Z" />
<path d="M144.514 23.9274H157.001V24.6909H144.514V23.9274Z" />
<path d="M62.8613 34.6389H63.6923V45.8238H62.8613V34.6389ZM66.833 34.6389H67.6182L75.3253 44.3732V34.6389H76.1258V45.8238H75.5007L67.6335 35.8834V45.8238H66.833V34.6389ZM78.4127 44.19L78.954 43.5639C80.1813 44.7015 81.3172 45.2283 82.9562 45.2283C84.6333 45.2283 85.7768 44.2816 85.7768 43.0066V42.976C85.7768 41.7927 85.1517 41.1055 82.6208 40.594C79.9374 40.0519 78.8549 39.1434 78.8549 37.4485V37.418C78.8549 35.7536 80.3719 34.4786 82.4454 34.4786C84.0768 34.4786 85.1441 34.929 86.2723 35.8376L85.7463 36.4941C84.6943 35.5856 83.6423 35.2344 82.4149 35.2344C80.7683 35.2344 79.6858 36.1735 79.6858 37.3416V37.3721C79.6858 38.5555 80.2957 39.2732 82.9409 39.8153C85.5252 40.3421 86.6077 41.2659 86.6077 42.8997V42.9302C86.6077 44.7397 85.0602 45.9841 82.9028 45.9841C81.1266 45.9841 79.7544 45.3886 78.4127 44.19ZM91.9974 35.4024H88.1019V34.6389H96.7161V35.4024H92.8207V45.8238H91.9897V35.4024H91.9974ZM98.7439 34.6389H103.432C104.804 34.6389 105.902 35.0741 106.573 35.7383C107.099 36.2651 107.419 37.0133 107.419 37.815V37.8455C107.419 39.716 106.032 40.7849 104.149 41.0444L107.838 45.8238H106.786L103.226 41.1895H99.5749V45.8238H98.7439V34.6389ZM103.341 40.4413C105.208 40.4413 106.596 39.4946 106.596 37.8837V37.8531C106.596 36.3491 105.414 35.41 103.386 35.41H99.5749V40.4413H103.341ZM109.752 41.1742V34.6389H110.583V41.0979C110.583 43.7319 112.001 45.2512 114.364 45.2512C116.628 45.2512 118.084 43.8769 118.084 41.1742V34.6389H118.915V41.075C118.915 44.2892 117.047 45.9994 114.333 45.9994C111.65 45.9994 109.752 44.3045 109.752 41.1742ZM121.911 34.6389H122.696L127.179 41.2582L131.661 34.6389H132.446V45.8238H131.615V36.1048L127.194 42.5485H127.133L122.711 36.1048V45.8238H121.911V34.6389ZM135.572 34.6389H143.515V35.4024H136.395V39.8H142.791V40.5635H136.395V45.0527H143.591V45.8162H135.564V34.6389H135.572ZM145.688 34.6389H146.473L154.18 44.3732V34.6389H154.981V45.8238H154.355L146.481 35.8834V45.8238H145.68V34.6389H145.688ZM160.889 35.4024H156.993V34.6389H165.607V35.4024H161.712V45.8238H160.881V35.4024H160.889ZM166.705 44.19L167.246 43.5639C168.474 44.7015 169.61 45.2283 171.249 45.2283C172.926 45.2283 174.069 44.2816 174.069 43.0066V42.976C174.069 41.7927 173.444 41.1055 170.913 40.594C168.23 40.0519 167.147 39.1434 167.147 37.4485V37.418C167.147 35.7536 168.664 34.4786 170.738 34.4786C172.369 34.4786 173.436 34.929 174.565 35.8376L174.039 36.4941C172.987 35.5856 171.935 35.2344 170.707 35.2344C169.061 35.2344 167.978 36.1735 167.978 37.3416V37.3721C167.978 38.5555 168.588 39.2732 171.233 39.8153C173.818 40.3421 174.9 41.2659 174.9 42.8997V42.9302C174.9 44.7397 173.353 45.9841 171.195 45.9841C169.411 45.9841 168.039 45.3886 166.705 44.19Z" />
<path d="M49.795 25.5916C49.6959 25.1641 49.5511 24.7671 49.3681 24.393L37.0566 0C37.0566 0 26.1553 14.6663 25.9038 15.0328C25.6522 15.3916 25.3015 15.5825 24.9737 15.5825C24.6459 15.5825 24.2953 15.3916 24.0437 15.0328C23.7921 14.6663 12.8909 0 12.8909 0L0.579366 24.4006C0.396408 24.7671 0.251567 25.1717 0.152465 25.5993C0.0533627 26.0115 0 26.4467 0 26.8819V46.9994L12.4945 33.1729L24.9737 45.6863L37.453 33.1729L49.9475 46.9994V26.8743C49.9475 26.4391 49.8941 26.0039 49.795 25.5916Z" />
<path d="M44.6643 4.83282C43.6885 4.83282 42.9033 4.04644 42.9033 3.0692C42.9033 2.09959 43.6885 1.30557 44.6643 1.30557C45.6401 1.30557 46.4253 2.09959 46.4253 3.0692C46.4176 4.04644 45.6324 4.83282 44.6643 4.83282ZM44.6643 1.48881C43.8029 1.48881 43.1091 2.21411 43.1091 3.0692C43.1091 3.92429 43.8029 4.64959 44.6643 4.64959C45.5257 4.64959 46.2194 3.93192 46.2194 3.0692C46.2194 2.20647 45.5181 1.48881 44.6643 1.48881ZM44.9845 3.7945L44.6262 3.22189L44.4127 3.21426V3.74105C44.4127 3.77923 44.4432 3.80213 44.489 3.80977L44.6643 3.8403L44.6719 4.00827H43.8639L43.8715 3.8403L44.0239 3.80977C44.0697 3.80213 44.0925 3.77923 44.0925 3.74105V2.38971C44.0925 2.35153 44.0697 2.32863 44.0239 2.31336L43.8715 2.28282L43.8639 2.11485H44.6795C45.1827 2.11485 45.3809 2.35917 45.3809 2.59584C45.3809 2.86306 45.2284 3.05393 44.9311 3.13791L45.2818 3.66471C45.3733 3.78686 45.4037 3.7945 45.4571 3.80977L45.6248 3.83267L45.6324 4.00063H45.0988L44.9845 3.7945ZM44.5347 2.29809L44.4127 2.30572V3.02339L44.6185 3.05393C44.8701 3.03866 45.0378 2.9165 45.0378 2.65692C45.0378 2.39734 44.8701 2.28282 44.5347 2.29809Z" />
</svg>
